<?xml version="1.0" encoding="utf-8"?>

<!DOCTYPE svg PUBLIC "-//W3C//DTD SVG 1.1//EN" "http://www.w3.org/Graphics/SVG/1.1/DTD/svg11.dtd">
<!-- Uploaded to: SVG Repo, www.svgrepo.com, Generator: SVG Repo Mixer Tools -->
<svg height="800px" width="800px" version="1.1" id="_x32_" xmlns="http://www.w3.org/2000/svg" xmlns:xlink="http://www.w3.org/1999/xlink" 
	 viewBox="0 0 512 512"  xml:space="preserve">
<style type="text/css">
	.st0{fill:#c23b23;}
</style>
<g>
	<path class="st0" d="M378.412,0H208.298h-13.183l-9.314,9.314L57.02,138.102l-9.315,9.314v13.176v265.514
		c0,47.36,38.528,85.895,85.896,85.895h244.811c47.354,0,85.882-38.535,85.882-85.895V85.896C464.294,38.528,425.766,0,378.412,0z
		 M432.497,426.105c0,29.877-24.214,54.091-54.084,54.091H133.601c-29.884,0-54.098-24.214-54.098-54.091V160.591h83.717
		c24.885,0,45.078-20.178,45.078-45.07V31.804h170.115c29.87,0,54.084,24.214,54.084,54.092V426.105z"/>
	<path class="st0" d="M159.582,272.188c-8.56,0-14.125,3.393-17.114,7.604h-0.139c-0.95-3.533-3.798-6.927-9.098-6.927
		c-5.572,0-9.51,3.806-9.51,10.055v71.715c0,6.249,3.938,10.047,9.51,10.047c5.432,0,9.509-3.798,9.509-10.047v-20.787h0.133
		c2.583,3.806,8.148,7.066,16.708,7.066c10.732,0,19.424-6.382,22.818-16.708c1.627-4.888,2.312-10.319,2.312-17.658
		c0-7.331-0.685-12.764-2.312-17.658C179.007,278.57,170.314,272.188,159.582,272.188z M164.198,317.28
		c-1.627,5.027-5.16,7.61-10.187,7.61c-5.02,0-8.42-2.584-10.048-7.61c-0.816-2.444-1.222-6.11-1.222-10.732
		c0-4.615,0.406-8.281,1.222-10.725c1.627-5.027,5.028-7.611,10.048-7.611c5.027,0,8.56,2.584,10.187,7.611
		c0.817,2.444,1.222,6.11,1.222,10.725C165.419,311.17,165.015,314.836,164.198,317.28z"/>
	<path class="st0" d="M234.432,272.188c-8.561,0-14.125,3.393-17.114,7.604h-0.139c-0.95-3.533-3.799-6.927-9.098-6.927
		c-5.572,0-9.51,3.806-9.51,10.055v71.715c0,6.249,3.938,10.047,9.51,10.047c5.432,0,9.51-3.798,9.51-10.047v-20.787h0.132
		c2.584,3.806,8.148,7.066,16.709,7.066c10.731,0,19.424-6.382,22.818-16.708c1.627-4.888,2.311-10.319,2.311-17.658
		c0-7.331-0.684-12.764-2.311-17.658C253.856,278.57,245.163,272.188,234.432,272.188z M239.048,317.28
		c-1.628,5.027-5.16,7.61-10.187,7.61c-5.021,0-8.421-2.584-10.048-7.61c-0.817-2.444-1.222-6.11-1.222-10.732
		c0-4.615,0.405-8.281,1.222-10.725c1.626-5.027,5.027-7.611,10.048-7.611c5.027,0,8.56,2.584,10.187,7.611
		c0.816,2.444,1.222,6.11,1.222,10.725C240.269,311.17,239.864,314.836,239.048,317.28z"/>
	<path class="st0" d="M297.195,287.808h5.16c4.887,0,7.603-2.856,7.603-7.066c0-4.21-2.716-7.059-7.603-7.059h-5.16
		c-0.545,0-0.817-0.272-0.817-0.817v-9.782c0-6.249-3.938-10.048-9.37-10.048c-5.572,0-9.51,3.799-9.51,10.048v9.782
		c0,0.545-0.412,0.817-0.95,0.817h-0.545c-4.888,0-7.61,2.849-7.61,7.059c0,4.21,2.722,7.066,7.61,7.066h0.545
		c0.538,0,0.95,0.272,0.95,0.817v29.605c0,14.942,5.565,22.008,21.051,22.008h0.817c7.198,0,10.46-3.533,10.46-8.148
		c0-4.078-2.444-7.744-8.421-8.428c-3.533-0.405-5.027-2.031-5.027-5.97v-29.067C296.378,288.08,296.65,287.808,297.195,287.808z"/>
	<path class="st0" d="M361.173,305.466l13.853-18.07c1.494-2.032,2.312-4.211,2.312-6.243c0-4.482-3.534-8.288-8.421-8.288
		c-2.856,0-5.704,1.355-7.882,4.211l-10.725,14.125h-0.14l-10.732-14.125c-2.172-2.856-5.021-4.211-7.876-4.211
		c-4.888,0-8.42,3.806-8.42,8.288c0,2.032,0.817,4.211,2.311,6.243l13.853,18.07L323.818,325.7c-1.494,2.039-2.304,4.21-2.304,6.249
		c0,4.483,3.526,8.288,8.421,8.288c2.848,0,5.704-1.361,7.875-4.21l12.359-16.303h0.14l12.358,16.303
		c2.172,2.849,5.027,4.21,7.876,4.21c4.888,0,8.42-3.805,8.42-8.288c0-2.038-0.81-4.21-2.305-6.249L361.173,305.466z"/>
</g>
</svg>